<mxfile host="app.diagrams.net" modified="2021-12-30T07:06:34.973Z" agent="5.0 (Windows NT 10.0; Win64; x64) AppleWebKit/537.36 (KHTML, like Gecko) Chrome/96.0.4664.110 Safari/537.36 Edg/96.0.1054.62" etag="j-Z6wEuC6T3KcRAXg9HD" version="16.1.0" type="github">
  <diagram id="C5RBs43oDa-KdzZeNtuy" name="Page-1">
    <mxGraphModel dx="483" dy="1679" grid="1" gridSize="10" guides="1" tooltips="1" connect="1" arrows="1" fold="1" page="1" pageScale="1" pageWidth="827" pageHeight="1169" math="0" shadow="0">
      <root>
        <mxCell id="WIyWlLk6GJQsqaUBKTNV-0" />
        <mxCell id="WIyWlLk6GJQsqaUBKTNV-1" parent="WIyWlLk6GJQsqaUBKTNV-0" />
        <mxCell id="SG-CXACJYsSfaYb82qKn-0" value="初始化开发板、引脚、全局变量、UART、LED、按键、LCD、I2C、温度传感器、加速度传感器、网络连接" style="rounded=1;whiteSpace=wrap;html=1;spacing=4;fontSize=14;fontStyle=1;labelBorderColor=none;" vertex="1" parent="WIyWlLk6GJQsqaUBKTNV-1">
          <mxGeometry x="50" y="-50" width="240" height="120" as="geometry" />
        </mxCell>
        <mxCell id="SG-CXACJYsSfaYb82qKn-1" value="创建操作系统任务并开启操作系统" style="rounded=1;whiteSpace=wrap;html=1;spacing=4;fontSize=14;fontStyle=1;labelBorderColor=none;" vertex="1" parent="WIyWlLk6GJQsqaUBKTNV-1">
          <mxGeometry x="100" y="100" width="140" height="70" as="geometry" />
        </mxCell>
        <mxCell id="SG-CXACJYsSfaYb82qKn-2" value="获取硬件信息" style="rounded=1;whiteSpace=wrap;html=1;spacing=4;fontSize=14;fontStyle=1;labelBorderColor=none;" vertex="1" parent="WIyWlLk6GJQsqaUBKTNV-1">
          <mxGeometry x="110" y="200" width="120" height="60" as="geometry" />
        </mxCell>
        <mxCell id="SG-CXACJYsSfaYb82qKn-3" value="连接网络" style="rounded=1;whiteSpace=wrap;html=1;spacing=4;fontSize=14;fontStyle=1;labelBorderColor=none;" vertex="1" parent="WIyWlLk6GJQsqaUBKTNV-1">
          <mxGeometry x="110" y="290" width="120" height="60" as="geometry" />
        </mxCell>
        <mxCell id="SG-CXACJYsSfaYb82qKn-4" value="获取温度并显示到LCD和网络上" style="rounded=1;whiteSpace=wrap;html=1;spacing=4;fontSize=14;fontStyle=1;labelBorderColor=none;" vertex="1" parent="WIyWlLk6GJQsqaUBKTNV-1">
          <mxGeometry x="110" y="380" width="120" height="60" as="geometry" />
        </mxCell>
        <mxCell id="SG-CXACJYsSfaYb82qKn-5" value="获取加速度传感器的状态" style="rounded=1;whiteSpace=wrap;html=1;spacing=4;fontSize=14;fontStyle=1;labelBorderColor=none;" vertex="1" parent="WIyWlLk6GJQsqaUBKTNV-1">
          <mxGeometry x="110" y="470" width="120" height="60" as="geometry" />
        </mxCell>
        <mxCell id="SG-CXACJYsSfaYb82qKn-6" value="if 移动" style="rhombus;whiteSpace=wrap;html=1;spacing=4;fontSize=14;fontStyle=1;labelBorderColor=none;" vertex="1" parent="WIyWlLk6GJQsqaUBKTNV-1">
          <mxGeometry x="130" y="560" width="80" height="80" as="geometry" />
        </mxCell>
        <mxCell id="SG-CXACJYsSfaYb82qKn-7" value="灯光警告" style="rounded=1;whiteSpace=wrap;html=1;spacing=4;fontSize=14;fontStyle=1;labelBorderColor=none;" vertex="1" parent="WIyWlLk6GJQsqaUBKTNV-1">
          <mxGeometry x="110" y="676" width="120" height="60" as="geometry" />
        </mxCell>
        <mxCell id="SG-CXACJYsSfaYb82qKn-8" value="&amp;nbsp;灯光关闭" style="rounded=1;whiteSpace=wrap;html=1;spacing=4;fontSize=14;fontStyle=1;labelBorderColor=none;" vertex="1" parent="WIyWlLk6GJQsqaUBKTNV-1">
          <mxGeometry x="260" y="676" width="120" height="60" as="geometry" />
        </mxCell>
        <mxCell id="SG-CXACJYsSfaYb82qKn-9" value="" style="endArrow=classic;html=1;rounded=0;exitX=0.5;exitY=1;exitDx=0;exitDy=0;entryX=0.5;entryY=0;entryDx=0;entryDy=0;spacing=4;fontSize=14;fontStyle=1;labelBorderColor=none;" edge="1" parent="WIyWlLk6GJQsqaUBKTNV-1" source="SG-CXACJYsSfaYb82qKn-0" target="SG-CXACJYsSfaYb82qKn-1">
          <mxGeometry width="50" height="50" relative="1" as="geometry">
            <mxPoint x="240" y="240" as="sourcePoint" />
            <mxPoint x="290" y="190" as="targetPoint" />
          </mxGeometry>
        </mxCell>
        <mxCell id="SG-CXACJYsSfaYb82qKn-10" value="" style="endArrow=classic;html=1;rounded=0;exitX=0.5;exitY=1;exitDx=0;exitDy=0;entryX=0.5;entryY=0;entryDx=0;entryDy=0;spacing=4;fontSize=14;fontStyle=1;labelBorderColor=none;" edge="1" parent="WIyWlLk6GJQsqaUBKTNV-1" source="SG-CXACJYsSfaYb82qKn-1" target="SG-CXACJYsSfaYb82qKn-2">
          <mxGeometry width="50" height="50" relative="1" as="geometry">
            <mxPoint x="240" y="240" as="sourcePoint" />
            <mxPoint x="290" y="190" as="targetPoint" />
          </mxGeometry>
        </mxCell>
        <mxCell id="SG-CXACJYsSfaYb82qKn-11" value="" style="endArrow=classic;html=1;rounded=0;entryX=0.5;entryY=0;entryDx=0;entryDy=0;spacing=4;fontSize=14;fontStyle=1;labelBorderColor=none;" edge="1" parent="WIyWlLk6GJQsqaUBKTNV-1" target="SG-CXACJYsSfaYb82qKn-3">
          <mxGeometry width="50" height="50" relative="1" as="geometry">
            <mxPoint x="170" y="260" as="sourcePoint" />
            <mxPoint x="180" y="209.99999999999977" as="targetPoint" />
          </mxGeometry>
        </mxCell>
        <mxCell id="SG-CXACJYsSfaYb82qKn-12" value="" style="endArrow=classic;html=1;rounded=0;entryX=0.5;entryY=0;entryDx=0;entryDy=0;spacing=4;fontSize=14;fontStyle=1;labelBorderColor=none;" edge="1" parent="WIyWlLk6GJQsqaUBKTNV-1" target="SG-CXACJYsSfaYb82qKn-4">
          <mxGeometry width="50" height="50" relative="1" as="geometry">
            <mxPoint x="170" y="350" as="sourcePoint" />
            <mxPoint x="190" y="219.99999999999977" as="targetPoint" />
          </mxGeometry>
        </mxCell>
        <mxCell id="SG-CXACJYsSfaYb82qKn-13" value="" style="endArrow=classic;html=1;rounded=0;exitX=0.5;exitY=1;exitDx=0;exitDy=0;spacing=4;fontSize=14;fontStyle=1;labelBorderColor=none;" edge="1" parent="WIyWlLk6GJQsqaUBKTNV-1" source="SG-CXACJYsSfaYb82qKn-4" target="SG-CXACJYsSfaYb82qKn-5">
          <mxGeometry width="50" height="50" relative="1" as="geometry">
            <mxPoint x="200" y="199.99999999999977" as="sourcePoint" />
            <mxPoint x="200" y="229.99999999999977" as="targetPoint" />
          </mxGeometry>
        </mxCell>
        <mxCell id="SG-CXACJYsSfaYb82qKn-14" value="" style="endArrow=classic;html=1;rounded=0;exitX=0.5;exitY=1;exitDx=0;exitDy=0;entryX=0.5;entryY=0;entryDx=0;entryDy=0;spacing=4;fontSize=14;fontStyle=1;labelBorderColor=none;" edge="1" parent="WIyWlLk6GJQsqaUBKTNV-1" source="SG-CXACJYsSfaYb82qKn-5" target="SG-CXACJYsSfaYb82qKn-6">
          <mxGeometry width="50" height="50" relative="1" as="geometry">
            <mxPoint x="210" y="209.99999999999977" as="sourcePoint" />
            <mxPoint x="210" y="239.99999999999977" as="targetPoint" />
          </mxGeometry>
        </mxCell>
        <mxCell id="SG-CXACJYsSfaYb82qKn-15" value="" style="endArrow=classic;html=1;rounded=0;strokeWidth=1;spacing=4;fontSize=14;fontStyle=1;labelBorderColor=none;" edge="1" parent="WIyWlLk6GJQsqaUBKTNV-1" source="SG-CXACJYsSfaYb82qKn-6" target="SG-CXACJYsSfaYb82qKn-7">
          <mxGeometry width="50" height="50" relative="1" as="geometry">
            <mxPoint x="220" y="219.99999999999977" as="sourcePoint" />
            <mxPoint x="220" y="249.99999999999977" as="targetPoint" />
          </mxGeometry>
        </mxCell>
        <mxCell id="SG-CXACJYsSfaYb82qKn-16" value="" style="endArrow=classic;html=1;rounded=0;exitX=1;exitY=0.5;exitDx=0;exitDy=0;entryX=0.5;entryY=0;entryDx=0;entryDy=0;spacing=4;fontSize=14;fontStyle=1;labelBorderColor=none;" edge="1" parent="WIyWlLk6GJQsqaUBKTNV-1" source="SG-CXACJYsSfaYb82qKn-6" target="SG-CXACJYsSfaYb82qKn-8">
          <mxGeometry width="50" height="50" relative="1" as="geometry">
            <mxPoint x="230" y="229.99999999999977" as="sourcePoint" />
            <mxPoint x="230" y="259.9999999999998" as="targetPoint" />
            <Array as="points">
              <mxPoint x="320" y="600" />
            </Array>
          </mxGeometry>
        </mxCell>
        <mxCell id="SG-CXACJYsSfaYb82qKn-22" value="FALSE" style="edgeLabel;html=1;align=center;verticalAlign=middle;resizable=0;points=[];spacing=4;fontSize=14;fontStyle=1;labelBorderColor=none;" vertex="1" connectable="0" parent="SG-CXACJYsSfaYb82qKn-16">
          <mxGeometry x="-0.5194" y="-1" relative="1" as="geometry">
            <mxPoint as="offset" />
          </mxGeometry>
        </mxCell>
        <mxCell id="SG-CXACJYsSfaYb82qKn-17" value="通过UART与上位机通信" style="rounded=1;whiteSpace=wrap;html=1;spacing=4;fontSize=14;fontStyle=1;labelBorderColor=none;" vertex="1" parent="WIyWlLk6GJQsqaUBKTNV-1">
          <mxGeometry x="110" y="778" width="120" height="60" as="geometry" />
        </mxCell>
        <mxCell id="SG-CXACJYsSfaYb82qKn-19" value="" style="endArrow=classic;html=1;rounded=0;exitX=0.5;exitY=1;exitDx=0;exitDy=0;entryX=0.5;entryY=0;entryDx=0;entryDy=0;spacing=4;fontSize=14;fontStyle=1;labelBorderColor=none;" edge="1" parent="WIyWlLk6GJQsqaUBKTNV-1" source="SG-CXACJYsSfaYb82qKn-7" target="SG-CXACJYsSfaYb82qKn-17">
          <mxGeometry width="50" height="50" relative="1" as="geometry">
            <mxPoint x="240" y="239.99999999999977" as="sourcePoint" />
            <mxPoint x="240" y="269.9999999999998" as="targetPoint" />
          </mxGeometry>
        </mxCell>
        <mxCell id="SG-CXACJYsSfaYb82qKn-20" value="" style="endArrow=classic;html=1;rounded=0;exitX=0.5;exitY=1;exitDx=0;exitDy=0;spacing=4;fontSize=14;fontStyle=1;labelBorderColor=none;" edge="1" parent="WIyWlLk6GJQsqaUBKTNV-1" source="SG-CXACJYsSfaYb82qKn-8">
          <mxGeometry width="50" height="50" relative="1" as="geometry">
            <mxPoint x="240" y="690" as="sourcePoint" />
            <mxPoint x="170" y="750" as="targetPoint" />
            <Array as="points">
              <mxPoint x="320" y="750" />
            </Array>
          </mxGeometry>
        </mxCell>
        <mxCell id="SG-CXACJYsSfaYb82qKn-21" value="" style="endArrow=classic;html=1;rounded=0;exitX=0.5;exitY=1;exitDx=0;exitDy=0;spacing=4;fontSize=14;fontStyle=1;labelBorderColor=none;" edge="1" parent="WIyWlLk6GJQsqaUBKTNV-1" source="SG-CXACJYsSfaYb82qKn-17">
          <mxGeometry width="50" height="50" relative="1" as="geometry">
            <mxPoint x="240" y="760" as="sourcePoint" />
            <mxPoint x="170" y="360" as="targetPoint" />
            <Array as="points">
              <mxPoint x="170" y="890" />
              <mxPoint x="410" y="890" />
              <mxPoint x="410" y="840" />
              <mxPoint x="410" y="360" />
            </Array>
          </mxGeometry>
        </mxCell>
        <mxCell id="SG-CXACJYsSfaYb82qKn-23" value="Text" style="edgeLabel;html=1;align=center;verticalAlign=middle;resizable=0;points=[];spacing=4;fontSize=14;fontStyle=1;labelBorderColor=none;" vertex="1" connectable="0" parent="SG-CXACJYsSfaYb82qKn-21">
          <mxGeometry x="-0.7861" y="-1" relative="1" as="geometry">
            <mxPoint as="offset" />
          </mxGeometry>
        </mxCell>
      </root>
    </mxGraphModel>
  </diagram>
</mxfile>
